<mxfile host="drawio-plugin" modified="2024-03-24T04:53:05.260Z" agent="5.0 (Windows NT 10.0; Win64; x64) AppleWebKit/537.36 (KHTML, like Gecko) Chrome/111.0.0.0 Safari/537.36" version="20.5.3" etag="OszAZ-yVgcAnD0QoKCfH" type="embed"><diagram id="F6HSycgJfReW_Xlc1rb3" name="第 1 页"><mxGraphModel dx="3634" dy="1110" grid="1" gridSize="10" guides="1" tooltips="1" connect="1" arrows="1" fold="1" page="1" pageScale="1" pageWidth="827" pageHeight="1169" math="0" shadow="0"><root><mxCell id="0"/><mxCell id="1" parent="0"/><mxCell id="773" value="Patients" style="shape=table;startSize=30;container=1;collapsible=1;childLayout=tableLayout;fixedRows=1;rowLines=0;fontStyle=1;align=center;resizeLast=1;" parent="1" vertex="1"><mxGeometry x="-1654" y="90" width="364" height="330" as="geometry"/></mxCell><mxCell id="774" value="" style="shape=tableRow;horizontal=0;startSize=0;swimlaneHead=0;swimlaneBody=0;fillColor=none;collapsible=0;dropTarget=0;points=[[0,0.5],[1,0.5]];portConstraint=eastwest;top=0;left=0;right=0;bottom=1;" parent="773" vertex="1"><mxGeometry y="30" width="364" height="30" as="geometry"/></mxCell><mxCell id="775" value="PK" style="shape=partialRectangle;overflow=hidden;connectable=0;fillColor=none;top=0;left=0;bottom=0;right=0;fontStyle=1;" parent="774" vertex="1"><mxGeometry width="30" height="30" as="geometry"><mxRectangle width="30" height="30" as="alternateBounds"/></mxGeometry></mxCell><mxCell id="776" value="p_id int   auto_increment comment '病人号'" style="shape=partialRectangle;overflow=hidden;connectable=0;fillColor=none;align=left;top=0;left=0;bottom=0;right=0;spacingLeft=6;fontStyle=5;" parent="774" vertex="1"><mxGeometry x="30" width="334" height="30" as="geometry"><mxRectangle width="334" height="30" as="alternateBounds"/></mxGeometry></mxCell><mxCell id="777" value="" style="shape=tableRow;horizontal=0;startSize=0;swimlaneHead=0;swimlaneBody=0;fillColor=none;collapsible=0;dropTarget=0;points=[[0,0.5],[1,0.5]];portConstraint=eastwest;top=0;left=0;right=0;bottom=0;" parent="773" vertex="1"><mxGeometry y="60" width="364" height="30" as="geometry"/></mxCell><mxCell id="778" value="" style="shape=partialRectangle;overflow=hidden;connectable=0;fillColor=none;top=0;left=0;bottom=0;right=0;" parent="777" vertex="1"><mxGeometry width="30" height="30" as="geometry"><mxRectangle width="30" height="30" as="alternateBounds"/></mxGeometry></mxCell><mxCell id="779" value="p_name varchar(20) not null comment '病人姓名'" style="shape=partialRectangle;overflow=hidden;connectable=0;fillColor=none;align=left;top=0;left=0;bottom=0;right=0;spacingLeft=6;" parent="777" vertex="1"><mxGeometry x="30" width="334" height="30" as="geometry"><mxRectangle width="334" height="30" as="alternateBounds"/></mxGeometry></mxCell><mxCell id="780" value="" style="shape=tableRow;horizontal=0;startSize=0;swimlaneHead=0;swimlaneBody=0;fillColor=none;collapsible=0;dropTarget=0;points=[[0,0.5],[1,0.5]];portConstraint=eastwest;top=0;left=0;right=0;bottom=0;" parent="773" vertex="1"><mxGeometry y="90" width="364" height="30" as="geometry"/></mxCell><mxCell id="781" value="" style="shape=partialRectangle;overflow=hidden;connectable=0;fillColor=none;top=0;left=0;bottom=0;right=0;" parent="780" vertex="1"><mxGeometry width="30" height="30" as="geometry"><mxRectangle width="30" height="30" as="alternateBounds"/></mxGeometry></mxCell><mxCell id="782" value="gender boolean not null comment '性别 0男 1女'" style="shape=partialRectangle;overflow=hidden;connectable=0;fillColor=none;align=left;top=0;left=0;bottom=0;right=0;spacingLeft=6;" parent="780" vertex="1"><mxGeometry x="30" width="334" height="30" as="geometry"><mxRectangle width="334" height="30" as="alternateBounds"/></mxGeometry></mxCell><mxCell id="783" value="" style="shape=tableRow;horizontal=0;startSize=0;swimlaneHead=0;swimlaneBody=0;fillColor=none;collapsible=0;dropTarget=0;points=[[0,0.5],[1,0.5]];portConstraint=eastwest;top=0;left=0;right=0;bottom=0;" parent="773" vertex="1"><mxGeometry y="120" width="364" height="30" as="geometry"/></mxCell><mxCell id="784" value="" style="shape=partialRectangle;overflow=hidden;connectable=0;fillColor=none;top=0;left=0;bottom=0;right=0;" parent="783" vertex="1"><mxGeometry width="30" height="30" as="geometry"><mxRectangle width="30" height="30" as="alternateBounds"/></mxGeometry></mxCell><mxCell id="785" value="card_id varchar(18) not null comment '身份证号'" style="shape=partialRectangle;overflow=hidden;connectable=0;fillColor=none;align=left;top=0;left=0;bottom=0;right=0;spacingLeft=6;" parent="783" vertex="1"><mxGeometry x="30" width="334" height="30" as="geometry"><mxRectangle width="334" height="30" as="alternateBounds"/></mxGeometry></mxCell><mxCell id="786" value="" style="shape=tableRow;horizontal=0;startSize=0;swimlaneHead=0;swimlaneBody=0;fillColor=none;collapsible=0;dropTarget=0;points=[[0,0.5],[1,0.5]];portConstraint=eastwest;top=0;left=0;right=0;bottom=0;" parent="773" vertex="1"><mxGeometry y="150" width="364" height="30" as="geometry"/></mxCell><mxCell id="787" value="" style="shape=partialRectangle;overflow=hidden;connectable=0;fillColor=none;top=0;left=0;bottom=0;right=0;" parent="786" vertex="1"><mxGeometry width="30" height="30" as="geometry"><mxRectangle width="30" height="30" as="alternateBounds"/></mxGeometry></mxCell><mxCell id="788" value="birthday date not null comment '出生日期'" style="shape=partialRectangle;overflow=hidden;connectable=0;fillColor=none;align=left;top=0;left=0;bottom=0;right=0;spacingLeft=6;" parent="786" vertex="1"><mxGeometry x="30" width="334" height="30" as="geometry"><mxRectangle width="334" height="30" as="alternateBounds"/></mxGeometry></mxCell><mxCell id="789" value="" style="shape=tableRow;horizontal=0;startSize=0;swimlaneHead=0;swimlaneBody=0;fillColor=none;collapsible=0;dropTarget=0;points=[[0,0.5],[1,0.5]];portConstraint=eastwest;top=0;left=0;right=0;bottom=0;" parent="773" vertex="1"><mxGeometry y="180" width="364" height="30" as="geometry"/></mxCell><mxCell id="790" value="" style="shape=partialRectangle;overflow=hidden;connectable=0;fillColor=none;top=0;left=0;bottom=0;right=0;" parent="789" vertex="1"><mxGeometry width="30" height="30" as="geometry"><mxRectangle width="30" height="30" as="alternateBounds"/></mxGeometry></mxCell><mxCell id="791" value="phone varchar(11) not null comment '手机号'" style="shape=partialRectangle;overflow=hidden;connectable=0;fillColor=none;align=left;top=0;left=0;bottom=0;right=0;spacingLeft=6;" parent="789" vertex="1"><mxGeometry x="30" width="334" height="30" as="geometry"><mxRectangle width="334" height="30" as="alternateBounds"/></mxGeometry></mxCell><mxCell id="792" value="" style="shape=tableRow;horizontal=0;startSize=0;swimlaneHead=0;swimlaneBody=0;fillColor=none;collapsible=0;dropTarget=0;points=[[0,0.5],[1,0.5]];portConstraint=eastwest;top=0;left=0;right=0;bottom=0;" parent="773" vertex="1"><mxGeometry y="210" width="364" height="30" as="geometry"/></mxCell><mxCell id="793" value="" style="shape=partialRectangle;overflow=hidden;connectable=0;fillColor=none;top=0;left=0;bottom=0;right=0;" parent="792" vertex="1"><mxGeometry width="30" height="30" as="geometry"><mxRectangle width="30" height="30" as="alternateBounds"/></mxGeometry></mxCell><mxCell id="794" value="homeAddress text comment '家庭住址'" style="shape=partialRectangle;overflow=hidden;connectable=0;fillColor=none;align=left;top=0;left=0;bottom=0;right=0;spacingLeft=6;" parent="792" vertex="1"><mxGeometry x="30" width="334" height="30" as="geometry"><mxRectangle width="334" height="30" as="alternateBounds"/></mxGeometry></mxCell><mxCell id="795" value="" style="shape=tableRow;horizontal=0;startSize=0;swimlaneHead=0;swimlaneBody=0;fillColor=none;collapsible=0;dropTarget=0;points=[[0,0.5],[1,0.5]];portConstraint=eastwest;top=0;left=0;right=0;bottom=0;" parent="773" vertex="1"><mxGeometry y="240" width="364" height="30" as="geometry"/></mxCell><mxCell id="796" value="" style="shape=partialRectangle;overflow=hidden;connectable=0;fillColor=none;top=0;left=0;bottom=0;right=0;" parent="795" vertex="1"><mxGeometry width="30" height="30" as="geometry"><mxRectangle width="30" height="30" as="alternateBounds"/></mxGeometry></mxCell><mxCell id="797" value="contactPerson varchar(20) comment '紧急联系人'" style="shape=partialRectangle;overflow=hidden;connectable=0;fillColor=none;align=left;top=0;left=0;bottom=0;right=0;spacingLeft=6;" parent="795" vertex="1"><mxGeometry x="30" width="334" height="30" as="geometry"><mxRectangle width="334" height="30" as="alternateBounds"/></mxGeometry></mxCell><mxCell id="798" value="" style="shape=tableRow;horizontal=0;startSize=0;swimlaneHead=0;swimlaneBody=0;fillColor=none;collapsible=0;dropTarget=0;points=[[0,0.5],[1,0.5]];portConstraint=eastwest;top=0;left=0;right=0;bottom=0;" parent="773" vertex="1"><mxGeometry y="270" width="364" height="30" as="geometry"/></mxCell><mxCell id="799" value="" style="shape=partialRectangle;overflow=hidden;connectable=0;fillColor=none;top=0;left=0;bottom=0;right=0;" parent="798" vertex="1"><mxGeometry width="30" height="30" as="geometry"><mxRectangle width="30" height="30" as="alternateBounds"/></mxGeometry></mxCell><mxCell id="800" value="contactPhone varchar(11) comment '紧急联系人手机号'" style="shape=partialRectangle;overflow=hidden;connectable=0;fillColor=none;align=left;top=0;left=0;bottom=0;right=0;spacingLeft=6;" parent="798" vertex="1"><mxGeometry x="30" width="334" height="30" as="geometry"><mxRectangle width="334" height="30" as="alternateBounds"/></mxGeometry></mxCell><mxCell id="801" value="" style="shape=tableRow;horizontal=0;startSize=0;swimlaneHead=0;swimlaneBody=0;fillColor=none;collapsible=0;dropTarget=0;points=[[0,0.5],[1,0.5]];portConstraint=eastwest;top=0;left=0;right=0;bottom=0;" parent="773" vertex="1"><mxGeometry y="300" width="364" height="30" as="geometry"/></mxCell><mxCell id="802" value="" style="shape=partialRectangle;overflow=hidden;connectable=0;fillColor=none;top=0;left=0;bottom=0;right=0;" parent="801" vertex="1"><mxGeometry width="30" height="30" as="geometry"><mxRectangle width="30" height="30" as="alternateBounds"/></mxGeometry></mxCell><mxCell id="803" value="relation varchar(12) comment '与病人关系'" style="shape=partialRectangle;overflow=hidden;connectable=0;fillColor=none;align=left;top=0;left=0;bottom=0;right=0;spacingLeft=6;" parent="801" vertex="1"><mxGeometry x="30" width="334" height="30" as="geometry"><mxRectangle width="334" height="30" as="alternateBounds"/></mxGeometry></mxCell><mxCell id="804" value="Doctors" style="shape=table;startSize=30;container=1;collapsible=1;childLayout=tableLayout;fixedRows=1;rowLines=0;fontStyle=1;align=center;resizeLast=1;" parent="1" vertex="1"><mxGeometry x="-1654" y="740" width="320" height="240" as="geometry"/></mxCell><mxCell id="805" value="" style="shape=tableRow;horizontal=0;startSize=0;swimlaneHead=0;swimlaneBody=0;fillColor=none;collapsible=0;dropTarget=0;points=[[0,0.5],[1,0.5]];portConstraint=eastwest;top=0;left=0;right=0;bottom=1;" parent="804" vertex="1"><mxGeometry y="30" width="320" height="30" as="geometry"/></mxCell><mxCell id="806" value="PK" style="shape=partialRectangle;overflow=hidden;connectable=0;fillColor=none;top=0;left=0;bottom=0;right=0;fontStyle=1;" parent="805" vertex="1"><mxGeometry width="30" height="30" as="geometry"><mxRectangle width="30" height="30" as="alternateBounds"/></mxGeometry></mxCell><mxCell id="807" value="d_id int   auto_increment comment '职工号'" style="shape=partialRectangle;overflow=hidden;connectable=0;fillColor=none;align=left;top=0;left=0;bottom=0;right=0;spacingLeft=6;fontStyle=5;" parent="805" vertex="1"><mxGeometry x="30" width="290" height="30" as="geometry"><mxRectangle width="290" height="30" as="alternateBounds"/></mxGeometry></mxCell><mxCell id="808" value="" style="shape=tableRow;horizontal=0;startSize=0;swimlaneHead=0;swimlaneBody=0;fillColor=none;collapsible=0;dropTarget=0;points=[[0,0.5],[1,0.5]];portConstraint=eastwest;top=0;left=0;right=0;bottom=0;" parent="804" vertex="1"><mxGeometry y="60" width="320" height="30" as="geometry"/></mxCell><mxCell id="809" value="" style="shape=partialRectangle;overflow=hidden;connectable=0;fillColor=none;top=0;left=0;bottom=0;right=0;" parent="808" vertex="1"><mxGeometry width="30" height="30" as="geometry"><mxRectangle width="30" height="30" as="alternateBounds"/></mxGeometry></mxCell><mxCell id="810" value="d_name varchar(20) not null comment '医生姓名'" style="shape=partialRectangle;overflow=hidden;connectable=0;fillColor=none;align=left;top=0;left=0;bottom=0;right=0;spacingLeft=6;" parent="808" vertex="1"><mxGeometry x="30" width="290" height="30" as="geometry"><mxRectangle width="290" height="30" as="alternateBounds"/></mxGeometry></mxCell><mxCell id="811" value="" style="shape=tableRow;horizontal=0;startSize=0;swimlaneHead=0;swimlaneBody=0;fillColor=none;collapsible=0;dropTarget=0;points=[[0,0.5],[1,0.5]];portConstraint=eastwest;top=0;left=0;right=0;bottom=0;" parent="804" vertex="1"><mxGeometry y="90" width="320" height="30" as="geometry"/></mxCell><mxCell id="812" value="" style="shape=partialRectangle;overflow=hidden;connectable=0;fillColor=none;top=0;left=0;bottom=0;right=0;" parent="811" vertex="1"><mxGeometry width="30" height="30" as="geometry"><mxRectangle width="30" height="30" as="alternateBounds"/></mxGeometry></mxCell><mxCell id="813" value="gender boolean not null comment '性别 0男 1女'" style="shape=partialRectangle;overflow=hidden;connectable=0;fillColor=none;align=left;top=0;left=0;bottom=0;right=0;spacingLeft=6;" parent="811" vertex="1"><mxGeometry x="30" width="290" height="30" as="geometry"><mxRectangle width="290" height="30" as="alternateBounds"/></mxGeometry></mxCell><mxCell id="814" value="" style="shape=tableRow;horizontal=0;startSize=0;swimlaneHead=0;swimlaneBody=0;fillColor=none;collapsible=0;dropTarget=0;points=[[0,0.5],[1,0.5]];portConstraint=eastwest;top=0;left=0;right=0;bottom=0;" parent="804" vertex="1"><mxGeometry y="120" width="320" height="30" as="geometry"/></mxCell><mxCell id="815" value="" style="shape=partialRectangle;overflow=hidden;connectable=0;fillColor=none;top=0;left=0;bottom=0;right=0;" parent="814" vertex="1"><mxGeometry width="30" height="30" as="geometry"><mxRectangle width="30" height="30" as="alternateBounds"/></mxGeometry></mxCell><mxCell id="816" value="card_id varchar(18) not null comment '身份证号'" style="shape=partialRectangle;overflow=hidden;connectable=0;fillColor=none;align=left;top=0;left=0;bottom=0;right=0;spacingLeft=6;" parent="814" vertex="1"><mxGeometry x="30" width="290" height="30" as="geometry"><mxRectangle width="290" height="30" as="alternateBounds"/></mxGeometry></mxCell><mxCell id="817" value="" style="shape=tableRow;horizontal=0;startSize=0;swimlaneHead=0;swimlaneBody=0;fillColor=none;collapsible=0;dropTarget=0;points=[[0,0.5],[1,0.5]];portConstraint=eastwest;top=0;left=0;right=0;bottom=0;" parent="804" vertex="1"><mxGeometry y="150" width="320" height="30" as="geometry"/></mxCell><mxCell id="818" value="" style="shape=partialRectangle;overflow=hidden;connectable=0;fillColor=none;top=0;left=0;bottom=0;right=0;" parent="817" vertex="1"><mxGeometry width="30" height="30" as="geometry"><mxRectangle width="30" height="30" as="alternateBounds"/></mxGeometry></mxCell><mxCell id="819" value="birthday date not null comment '出生日期'" style="shape=partialRectangle;overflow=hidden;connectable=0;fillColor=none;align=left;top=0;left=0;bottom=0;right=0;spacingLeft=6;" parent="817" vertex="1"><mxGeometry x="30" width="290" height="30" as="geometry"><mxRectangle width="290" height="30" as="alternateBounds"/></mxGeometry></mxCell><mxCell id="820" value="" style="shape=tableRow;horizontal=0;startSize=0;swimlaneHead=0;swimlaneBody=0;fillColor=none;collapsible=0;dropTarget=0;points=[[0,0.5],[1,0.5]];portConstraint=eastwest;top=0;left=0;right=0;bottom=0;" parent="804" vertex="1"><mxGeometry y="180" width="320" height="30" as="geometry"/></mxCell><mxCell id="821" value="" style="shape=partialRectangle;overflow=hidden;connectable=0;fillColor=none;top=0;left=0;bottom=0;right=0;" parent="820" vertex="1"><mxGeometry width="30" height="30" as="geometry"><mxRectangle width="30" height="30" as="alternateBounds"/></mxGeometry></mxCell><mxCell id="822" value="phone varchar(11) not null comment '手机号'" style="shape=partialRectangle;overflow=hidden;connectable=0;fillColor=none;align=left;top=0;left=0;bottom=0;right=0;spacingLeft=6;" parent="820" vertex="1"><mxGeometry x="30" width="290" height="30" as="geometry"><mxRectangle width="290" height="30" as="alternateBounds"/></mxGeometry></mxCell><mxCell id="823" value="" style="shape=tableRow;horizontal=0;startSize=0;swimlaneHead=0;swimlaneBody=0;fillColor=none;collapsible=0;dropTarget=0;points=[[0,0.5],[1,0.5]];portConstraint=eastwest;top=0;left=0;right=0;bottom=0;" parent="804" vertex="1"><mxGeometry y="210" width="320" height="30" as="geometry"/></mxCell><mxCell id="824" value="" style="shape=partialRectangle;overflow=hidden;connectable=0;fillColor=none;top=0;left=0;bottom=0;right=0;" parent="823" vertex="1"><mxGeometry width="30" height="30" as="geometry"><mxRectangle width="30" height="30" as="alternateBounds"/></mxGeometry></mxCell><mxCell id="825" value="homeAddress text comment '家庭住址'" style="shape=partialRectangle;overflow=hidden;connectable=0;fillColor=none;align=left;top=0;left=0;bottom=0;right=0;spacingLeft=6;" parent="823" vertex="1"><mxGeometry x="30" width="290" height="30" as="geometry"><mxRectangle width="290" height="30" as="alternateBounds"/></mxGeometry></mxCell><mxCell id="826" value="Items" style="shape=table;startSize=30;container=1;collapsible=1;childLayout=tableLayout;fixedRows=1;rowLines=0;fontStyle=1;align=center;resizeLast=1;" parent="1" vertex="1"><mxGeometry x="-1654" y="500" width="320" height="120" as="geometry"/></mxCell><mxCell id="827" value="" style="shape=tableRow;horizontal=0;startSize=0;swimlaneHead=0;swimlaneBody=0;fillColor=none;collapsible=0;dropTarget=0;points=[[0,0.5],[1,0.5]];portConstraint=eastwest;top=0;left=0;right=0;bottom=1;" parent="826" vertex="1"><mxGeometry y="30" width="320" height="30" as="geometry"/></mxCell><mxCell id="828" value="PK" style="shape=partialRectangle;overflow=hidden;connectable=0;fillColor=none;top=0;left=0;bottom=0;right=0;fontStyle=1;" parent="827" vertex="1"><mxGeometry width="30" height="30" as="geometry"><mxRectangle width="30" height="30" as="alternateBounds"/></mxGeometry></mxCell><mxCell id="829" value="i_id int   auto_increment comment '项目号'" style="shape=partialRectangle;overflow=hidden;connectable=0;fillColor=none;align=left;top=0;left=0;bottom=0;right=0;spacingLeft=6;fontStyle=5;" parent="827" vertex="1"><mxGeometry x="30" width="290" height="30" as="geometry"><mxRectangle width="290" height="30" as="alternateBounds"/></mxGeometry></mxCell><mxCell id="830" value="" style="shape=tableRow;horizontal=0;startSize=0;swimlaneHead=0;swimlaneBody=0;fillColor=none;collapsible=0;dropTarget=0;points=[[0,0.5],[1,0.5]];portConstraint=eastwest;top=0;left=0;right=0;bottom=0;" parent="826" vertex="1"><mxGeometry y="60" width="320" height="30" as="geometry"/></mxCell><mxCell id="831" value="" style="shape=partialRectangle;overflow=hidden;connectable=0;fillColor=none;top=0;left=0;bottom=0;right=0;" parent="830" vertex="1"><mxGeometry width="30" height="30" as="geometry"><mxRectangle width="30" height="30" as="alternateBounds"/></mxGeometry></mxCell><mxCell id="832" value="i_name varchar(50) not null comment '项目名'" style="shape=partialRectangle;overflow=hidden;connectable=0;fillColor=none;align=left;top=0;left=0;bottom=0;right=0;spacingLeft=6;" parent="830" vertex="1"><mxGeometry x="30" width="290" height="30" as="geometry"><mxRectangle width="290" height="30" as="alternateBounds"/></mxGeometry></mxCell><mxCell id="833" value="" style="shape=tableRow;horizontal=0;startSize=0;swimlaneHead=0;swimlaneBody=0;fillColor=none;collapsible=0;dropTarget=0;points=[[0,0.5],[1,0.5]];portConstraint=eastwest;top=0;left=0;right=0;bottom=0;" parent="826" vertex="1"><mxGeometry y="90" width="320" height="30" as="geometry"/></mxCell><mxCell id="834" value="" style="shape=partialRectangle;overflow=hidden;connectable=0;fillColor=none;top=0;left=0;bottom=0;right=0;" parent="833" vertex="1"><mxGeometry width="30" height="30" as="geometry"><mxRectangle width="30" height="30" as="alternateBounds"/></mxGeometry></mxCell><mxCell id="835" value="finishTime int not null comment '项目完成所需时间'" style="shape=partialRectangle;overflow=hidden;connectable=0;fillColor=none;align=left;top=0;left=0;bottom=0;right=0;spacingLeft=6;" parent="833" vertex="1"><mxGeometry x="30" width="290" height="30" as="geometry"><mxRectangle width="290" height="30" as="alternateBounds"/></mxGeometry></mxCell><mxCell id="836" value="Processes" style="shape=table;startSize=30;container=1;collapsible=1;childLayout=tableLayout;fixedRows=1;rowLines=0;fontStyle=1;align=center;resizeLast=1;" parent="1" vertex="1"><mxGeometry x="-1230" y="60" width="420" height="150" as="geometry"/></mxCell><mxCell id="837" value="" style="shape=tableRow;horizontal=0;startSize=0;swimlaneHead=0;swimlaneBody=0;fillColor=none;collapsible=0;dropTarget=0;points=[[0,0.5],[1,0.5]];portConstraint=eastwest;top=0;left=0;right=0;bottom=1;" parent="836" vertex="1"><mxGeometry y="30" width="420" height="30" as="geometry"/></mxCell><mxCell id="838" value="FK" style="shape=partialRectangle;overflow=hidden;connectable=0;fillColor=none;top=0;left=0;bottom=0;right=0;fontStyle=1;" parent="837" vertex="1"><mxGeometry width="30" height="30" as="geometry"><mxRectangle width="30" height="30" as="alternateBounds"/></mxGeometry></mxCell><mxCell id="839" value="pr_id int auto_increment comment '流程号'" style="shape=partialRectangle;overflow=hidden;connectable=0;fillColor=none;align=left;top=0;left=0;bottom=0;right=0;spacingLeft=6;fontStyle=5;" parent="837" vertex="1"><mxGeometry x="30" width="390" height="30" as="geometry"><mxRectangle width="390" height="30" as="alternateBounds"/></mxGeometry></mxCell><mxCell id="840" value="" style="shape=tableRow;horizontal=0;startSize=0;swimlaneHead=0;swimlaneBody=0;fillColor=none;collapsible=0;dropTarget=0;points=[[0,0.5],[1,0.5]];portConstraint=eastwest;top=0;left=0;right=0;bottom=1;" parent="836" vertex="1"><mxGeometry y="60" width="420" height="30" as="geometry"/></mxCell><mxCell id="841" value="FK" style="shape=partialRectangle;overflow=hidden;connectable=0;fillColor=none;top=0;left=0;bottom=0;right=0;fontStyle=1;" parent="840" vertex="1"><mxGeometry width="30" height="30" as="geometry"><mxRectangle width="30" height="30" as="alternateBounds"/></mxGeometry></mxCell><mxCell id="842" value="p_id int not null comment '病人号'" style="shape=partialRectangle;overflow=hidden;connectable=0;fillColor=none;align=left;top=0;left=0;bottom=0;right=0;spacingLeft=6;fontStyle=5;" parent="840" vertex="1"><mxGeometry x="30" width="390" height="30" as="geometry"><mxRectangle width="390" height="30" as="alternateBounds"/></mxGeometry></mxCell><mxCell id="843" value="" style="shape=tableRow;horizontal=0;startSize=0;swimlaneHead=0;swimlaneBody=0;fillColor=none;collapsible=0;dropTarget=0;points=[[0,0.5],[1,0.5]];portConstraint=eastwest;top=0;left=0;right=0;bottom=0;" parent="836" vertex="1"><mxGeometry y="90" width="420" height="30" as="geometry"/></mxCell><mxCell id="844" value="" style="shape=partialRectangle;overflow=hidden;connectable=0;fillColor=none;top=0;left=0;bottom=0;right=0;" parent="843" vertex="1"><mxGeometry width="30" height="30" as="geometry"><mxRectangle width="30" height="30" as="alternateBounds"/></mxGeometry></mxCell><mxCell id="845" value="startTime datetime not null comment '治疗流程的日期'" style="shape=partialRectangle;overflow=hidden;connectable=0;fillColor=none;align=left;top=0;left=0;bottom=0;right=0;spacingLeft=6;" parent="843" vertex="1"><mxGeometry x="30" width="390" height="30" as="geometry"><mxRectangle width="390" height="30" as="alternateBounds"/></mxGeometry></mxCell><mxCell id="846" value="" style="shape=tableRow;horizontal=0;startSize=0;swimlaneHead=0;swimlaneBody=0;fillColor=none;collapsible=0;dropTarget=0;points=[[0,0.5],[1,0.5]];portConstraint=eastwest;top=0;left=0;right=0;bottom=0;" parent="836" vertex="1"><mxGeometry y="120" width="420" height="30" as="geometry"/></mxCell><mxCell id="847" value="" style="shape=partialRectangle;overflow=hidden;connectable=0;fillColor=none;top=0;left=0;bottom=0;right=0;" parent="846" vertex="1"><mxGeometry width="30" height="30" as="geometry"><mxRectangle width="30" height="30" as="alternateBounds"/></mxGeometry></mxCell><mxCell id="848" value="constraint FK_Pat_Pro foreign key (p_id)references Patients(p_id)" style="shape=partialRectangle;overflow=hidden;connectable=0;fillColor=none;align=left;top=0;left=0;bottom=0;right=0;spacingLeft=6;" parent="846" vertex="1"><mxGeometry x="30" width="390" height="30" as="geometry"><mxRectangle width="390" height="30" as="alternateBounds"/></mxGeometry></mxCell><mxCell id="849" value="Process_Items" style="shape=table;startSize=30;container=1;collapsible=1;childLayout=tableLayout;fixedRows=1;rowLines=0;fontStyle=1;align=center;resizeLast=1;" parent="1" vertex="1"><mxGeometry x="-733" y="280" width="320" height="270" as="geometry"/></mxCell><mxCell id="850" value="" style="shape=tableRow;horizontal=0;startSize=0;swimlaneHead=0;swimlaneBody=0;fillColor=none;collapsible=0;dropTarget=0;points=[[0,0.5],[1,0.5]];portConstraint=eastwest;top=0;left=0;right=0;bottom=1;" parent="849" vertex="1"><mxGeometry y="30" width="320" height="30" as="geometry"/></mxCell><mxCell id="851" value="PK" style="shape=partialRectangle;overflow=hidden;connectable=0;fillColor=none;top=0;left=0;bottom=0;right=0;fontStyle=1;" parent="850" vertex="1"><mxGeometry width="30" height="30" as="geometry"><mxRectangle width="30" height="30" as="alternateBounds"/></mxGeometry></mxCell><mxCell id="852" value="id int auto_increment" style="shape=partialRectangle;overflow=hidden;connectable=0;fillColor=none;align=left;top=0;left=0;bottom=0;right=0;spacingLeft=6;fontStyle=5;" parent="850" vertex="1"><mxGeometry x="30" width="290" height="30" as="geometry"><mxRectangle width="290" height="30" as="alternateBounds"/></mxGeometry></mxCell><mxCell id="853" value="" style="shape=tableRow;horizontal=0;startSize=0;swimlaneHead=0;swimlaneBody=0;fillColor=none;collapsible=0;dropTarget=0;points=[[0,0.5],[1,0.5]];portConstraint=eastwest;top=0;left=0;right=0;bottom=1;" parent="849" vertex="1"><mxGeometry y="60" width="320" height="30" as="geometry"/></mxCell><mxCell id="854" value="FK" style="shape=partialRectangle;overflow=hidden;connectable=0;fillColor=none;top=0;left=0;bottom=0;right=0;fontStyle=1;" parent="853" vertex="1"><mxGeometry width="30" height="30" as="geometry"><mxRectangle width="30" height="30" as="alternateBounds"/></mxGeometry></mxCell><mxCell id="855" value="pr_id int not null comment '流程编号'" style="shape=partialRectangle;overflow=hidden;connectable=0;fillColor=none;align=left;top=0;left=0;bottom=0;right=0;spacingLeft=6;fontStyle=5;" parent="853" vertex="1"><mxGeometry x="30" width="290" height="30" as="geometry"><mxRectangle width="290" height="30" as="alternateBounds"/></mxGeometry></mxCell><mxCell id="856" value="" style="shape=tableRow;horizontal=0;startSize=0;swimlaneHead=0;swimlaneBody=0;fillColor=none;collapsible=0;dropTarget=0;points=[[0,0.5],[1,0.5]];portConstraint=eastwest;top=0;left=0;right=0;bottom=1;" parent="849" vertex="1"><mxGeometry y="90" width="320" height="30" as="geometry"/></mxCell><mxCell id="857" value="FK" style="shape=partialRectangle;overflow=hidden;connectable=0;fillColor=none;top=0;left=0;bottom=0;right=0;fontStyle=1;" parent="856" vertex="1"><mxGeometry width="30" height="30" as="geometry"><mxRectangle width="30" height="30" as="alternateBounds"/></mxGeometry></mxCell><mxCell id="858" value="i_id int not null comment '项目号'" style="shape=partialRectangle;overflow=hidden;connectable=0;fillColor=none;align=left;top=0;left=0;bottom=0;right=0;spacingLeft=6;fontStyle=5;" parent="856" vertex="1"><mxGeometry x="30" width="290" height="30" as="geometry"><mxRectangle width="290" height="30" as="alternateBounds"/></mxGeometry></mxCell><mxCell id="859" value="" style="shape=tableRow;horizontal=0;startSize=0;swimlaneHead=0;swimlaneBody=0;fillColor=none;collapsible=0;dropTarget=0;points=[[0,0.5],[1,0.5]];portConstraint=eastwest;top=0;left=0;right=0;bottom=0;" parent="849" vertex="1"><mxGeometry y="120" width="320" height="30" as="geometry"/></mxCell><mxCell id="860" value="" style="shape=partialRectangle;overflow=hidden;connectable=0;fillColor=none;top=0;left=0;bottom=0;right=0;" parent="859" vertex="1"><mxGeometry width="30" height="30" as="geometry"><mxRectangle width="30" height="30" as="alternateBounds"/></mxGeometry></mxCell><mxCell id="861" value="status int check ( status in (0,1,2,3)) not null comment '当前状态 0异常 1未启动 2进行中 3 结束'" style="shape=partialRectangle;overflow=hidden;connectable=0;fillColor=none;align=left;top=0;left=0;bottom=0;right=0;spacingLeft=6;" parent="859" vertex="1"><mxGeometry x="30" width="290" height="30" as="geometry"><mxRectangle width="290" height="30" as="alternateBounds"/></mxGeometry></mxCell><mxCell id="862" value="" style="shape=tableRow;horizontal=0;startSize=0;swimlaneHead=0;swimlaneBody=0;fillColor=none;collapsible=0;dropTarget=0;points=[[0,0.5],[1,0.5]];portConstraint=eastwest;top=0;left=0;right=0;bottom=0;" parent="849" vertex="1"><mxGeometry y="150" width="320" height="30" as="geometry"/></mxCell><mxCell id="863" value="" style="shape=partialRectangle;overflow=hidden;connectable=0;fillColor=none;top=0;left=0;bottom=0;right=0;" parent="862" vertex="1"><mxGeometry width="30" height="30" as="geometry"><mxRectangle width="30" height="30" as="alternateBounds"/></mxGeometry></mxCell><mxCell id="864" value="intervalTime int not null comment '项目间间隔的时间'" style="shape=partialRectangle;overflow=hidden;connectable=0;fillColor=none;align=left;top=0;left=0;bottom=0;right=0;spacingLeft=6;" parent="862" vertex="1"><mxGeometry x="30" width="290" height="30" as="geometry"><mxRectangle width="290" height="30" as="alternateBounds"/></mxGeometry></mxCell><mxCell id="865" value="" style="shape=tableRow;horizontal=0;startSize=0;swimlaneHead=0;swimlaneBody=0;fillColor=none;collapsible=0;dropTarget=0;points=[[0,0.5],[1,0.5]];portConstraint=eastwest;top=0;left=0;right=0;bottom=0;" parent="849" vertex="1"><mxGeometry y="180" width="320" height="30" as="geometry"/></mxCell><mxCell id="866" value="" style="shape=partialRectangle;overflow=hidden;connectable=0;fillColor=none;top=0;left=0;bottom=0;right=0;" parent="865" vertex="1"><mxGeometry width="30" height="30" as="geometry"><mxRectangle width="30" height="30" as="alternateBounds"/></mxGeometry></mxCell><mxCell id="867" value="num int not null comment '项目排序'" style="shape=partialRectangle;overflow=hidden;connectable=0;fillColor=none;align=left;top=0;left=0;bottom=0;right=0;spacingLeft=6;" parent="865" vertex="1"><mxGeometry x="30" width="290" height="30" as="geometry"><mxRectangle width="290" height="30" as="alternateBounds"/></mxGeometry></mxCell><mxCell id="868" value="" style="shape=tableRow;horizontal=0;startSize=0;swimlaneHead=0;swimlaneBody=0;fillColor=none;collapsible=0;dropTarget=0;points=[[0,0.5],[1,0.5]];portConstraint=eastwest;top=0;left=0;right=0;bottom=0;" parent="849" vertex="1"><mxGeometry y="210" width="320" height="30" as="geometry"/></mxCell><mxCell id="869" value="" style="shape=partialRectangle;overflow=hidden;connectable=0;fillColor=none;top=0;left=0;bottom=0;right=0;" parent="868" vertex="1"><mxGeometry width="30" height="30" as="geometry"><mxRectangle width="30" height="30" as="alternateBounds"/></mxGeometry></mxCell><mxCell id="870" value="foreign key (pr_id) references Processes (pr_id)" style="shape=partialRectangle;overflow=hidden;connectable=0;fillColor=none;align=left;top=0;left=0;bottom=0;right=0;spacingLeft=6;" parent="868" vertex="1"><mxGeometry x="30" width="290" height="30" as="geometry"><mxRectangle width="290" height="30" as="alternateBounds"/></mxGeometry></mxCell><mxCell id="871" value="" style="shape=tableRow;horizontal=0;startSize=0;swimlaneHead=0;swimlaneBody=0;fillColor=none;collapsible=0;dropTarget=0;points=[[0,0.5],[1,0.5]];portConstraint=eastwest;top=0;left=0;right=0;bottom=0;" parent="849" vertex="1"><mxGeometry y="240" width="320" height="30" as="geometry"/></mxCell><mxCell id="872" value="" style="shape=partialRectangle;overflow=hidden;connectable=0;fillColor=none;top=0;left=0;bottom=0;right=0;" parent="871" vertex="1"><mxGeometry width="30" height="30" as="geometry"><mxRectangle width="30" height="30" as="alternateBounds"/></mxGeometry></mxCell><mxCell id="873" value="foreign key (i_id) references Items(i_id)" style="shape=partialRectangle;overflow=hidden;connectable=0;fillColor=none;align=left;top=0;left=0;bottom=0;right=0;spacingLeft=6;" parent="871" vertex="1"><mxGeometry x="30" width="290" height="30" as="geometry"><mxRectangle width="290" height="30" as="alternateBounds"/></mxGeometry></mxCell><mxCell id="874" value="Doctor_Item" style="shape=table;startSize=30;container=1;collapsible=1;childLayout=tableLayout;fixedRows=1;rowLines=0;fontStyle=1;align=center;resizeLast=1;" parent="1" vertex="1"><mxGeometry x="-760" y="710" width="390" height="180" as="geometry"/></mxCell><mxCell id="875" value="" style="shape=tableRow;horizontal=0;startSize=0;swimlaneHead=0;swimlaneBody=0;fillColor=none;collapsible=0;dropTarget=0;points=[[0,0.5],[1,0.5]];portConstraint=eastwest;top=0;left=0;right=0;bottom=1;" parent="874" vertex="1"><mxGeometry y="30" width="390" height="30" as="geometry"/></mxCell><mxCell id="876" value="FK" style="shape=partialRectangle;overflow=hidden;connectable=0;fillColor=none;top=0;left=0;bottom=0;right=0;fontStyle=1;" parent="875" vertex="1"><mxGeometry width="30" height="30" as="geometry"><mxRectangle width="30" height="30" as="alternateBounds"/></mxGeometry></mxCell><mxCell id="877" value="i_id int not null comment '项目号'" style="shape=partialRectangle;overflow=hidden;connectable=0;fillColor=none;align=left;top=0;left=0;bottom=0;right=0;spacingLeft=6;fontStyle=5;" parent="875" vertex="1"><mxGeometry x="30" width="360" height="30" as="geometry"><mxRectangle width="360" height="30" as="alternateBounds"/></mxGeometry></mxCell><mxCell id="878" value="" style="shape=tableRow;horizontal=0;startSize=0;swimlaneHead=0;swimlaneBody=0;fillColor=none;collapsible=0;dropTarget=0;points=[[0,0.5],[1,0.5]];portConstraint=eastwest;top=0;left=0;right=0;bottom=1;" parent="874" vertex="1"><mxGeometry y="60" width="390" height="30" as="geometry"/></mxCell><mxCell id="879" value="FK" style="shape=partialRectangle;overflow=hidden;connectable=0;fillColor=none;top=0;left=0;bottom=0;right=0;fontStyle=1;" parent="878" vertex="1"><mxGeometry width="30" height="30" as="geometry"><mxRectangle width="30" height="30" as="alternateBounds"/></mxGeometry></mxCell><mxCell id="880" value="d_id int not null comment '医生职工号'" style="shape=partialRectangle;overflow=hidden;connectable=0;fillColor=none;align=left;top=0;left=0;bottom=0;right=0;spacingLeft=6;fontStyle=5;" parent="878" vertex="1"><mxGeometry x="30" width="360" height="30" as="geometry"><mxRectangle width="360" height="30" as="alternateBounds"/></mxGeometry></mxCell><mxCell id="881" value="" style="shape=tableRow;horizontal=0;startSize=0;swimlaneHead=0;swimlaneBody=0;fillColor=none;collapsible=0;dropTarget=0;points=[[0,0.5],[1,0.5]];portConstraint=eastwest;top=0;left=0;right=0;bottom=1;" parent="874" vertex="1"><mxGeometry y="90" width="390" height="30" as="geometry"/></mxCell><mxCell id="882" value="PK" style="shape=partialRectangle;overflow=hidden;connectable=0;fillColor=none;top=0;left=0;bottom=0;right=0;fontStyle=1;" parent="881" vertex="1"><mxGeometry width="30" height="30" as="geometry"><mxRectangle width="30" height="30" as="alternateBounds"/></mxGeometry></mxCell><mxCell id="883" value="di_id int auto_increment " style="shape=partialRectangle;overflow=hidden;connectable=0;fillColor=none;align=left;top=0;left=0;bottom=0;right=0;spacingLeft=6;fontStyle=5;" parent="881" vertex="1"><mxGeometry x="30" width="360" height="30" as="geometry"><mxRectangle width="360" height="30" as="alternateBounds"/></mxGeometry></mxCell><mxCell id="884" value="" style="shape=tableRow;horizontal=0;startSize=0;swimlaneHead=0;swimlaneBody=0;fillColor=none;collapsible=0;dropTarget=0;points=[[0,0.5],[1,0.5]];portConstraint=eastwest;top=0;left=0;right=0;bottom=0;" parent="874" vertex="1"><mxGeometry y="120" width="390" height="30" as="geometry"/></mxCell><mxCell id="885" value="" style="shape=partialRectangle;overflow=hidden;connectable=0;fillColor=none;top=0;left=0;bottom=0;right=0;" parent="884" vertex="1"><mxGeometry width="30" height="30" as="geometry"><mxRectangle width="30" height="30" as="alternateBounds"/></mxGeometry></mxCell><mxCell id="886" value="constraint FK_DI_Do foreign key (d_id)references Doctors(d_id)" style="shape=partialRectangle;overflow=hidden;connectable=0;fillColor=none;align=left;top=0;left=0;bottom=0;right=0;spacingLeft=6;" parent="884" vertex="1"><mxGeometry x="30" width="360" height="30" as="geometry"><mxRectangle width="360" height="30" as="alternateBounds"/></mxGeometry></mxCell><mxCell id="887" value="" style="shape=tableRow;horizontal=0;startSize=0;swimlaneHead=0;swimlaneBody=0;fillColor=none;collapsible=0;dropTarget=0;points=[[0,0.5],[1,0.5]];portConstraint=eastwest;top=0;left=0;right=0;bottom=0;" parent="874" vertex="1"><mxGeometry y="150" width="390" height="30" as="geometry"/></mxCell><mxCell id="888" value="" style="shape=partialRectangle;overflow=hidden;connectable=0;fillColor=none;top=0;left=0;bottom=0;right=0;" parent="887" vertex="1"><mxGeometry width="30" height="30" as="geometry"><mxRectangle width="30" height="30" as="alternateBounds"/></mxGeometry></mxCell><mxCell id="889" value="constraint FK_DI_It foreign key (i_id)references Items(i_id)" style="shape=partialRectangle;overflow=hidden;connectable=0;fillColor=none;align=left;top=0;left=0;bottom=0;right=0;spacingLeft=6;" parent="887" vertex="1"><mxGeometry x="30" width="360" height="30" as="geometry"><mxRectangle width="360" height="30" as="alternateBounds"/></mxGeometry></mxCell><mxCell id="891" style="edgeStyle=orthogonalEdgeStyle;rounded=0;html=1;exitX=0;exitY=0.5;exitDx=0;exitDy=0;entryX=1;entryY=0.5;entryDx=0;entryDy=0;" parent="1" source="840" target="774" edge="1"><mxGeometry relative="1" as="geometry"/></mxCell><mxCell id="895" style="edgeStyle=orthogonalEdgeStyle;rounded=0;html=1;exitX=0;exitY=0.5;exitDx=0;exitDy=0;entryX=1;entryY=0.5;entryDx=0;entryDy=0;" parent="1" source="878" target="805" edge="1"><mxGeometry relative="1" as="geometry"/></mxCell><mxCell id="897" style="edgeStyle=orthogonalEdgeStyle;rounded=0;html=1;exitX=0;exitY=0.5;exitDx=0;exitDy=0;entryX=1;entryY=0.5;entryDx=0;entryDy=0;" parent="1" source="853" target="837" edge="1"><mxGeometry relative="1" as="geometry"/></mxCell><mxCell id="899" style="edgeStyle=orthogonalEdgeStyle;rounded=0;orthogonalLoop=1;jettySize=auto;html=1;exitX=0;exitY=0.5;exitDx=0;exitDy=0;entryX=1;entryY=0.5;entryDx=0;entryDy=0;" edge="1" parent="1" source="856" target="827"><mxGeometry relative="1" as="geometry"><Array as="points"><mxPoint x="-1040" y="385"/><mxPoint x="-1040" y="545"/></Array></mxGeometry></mxCell><mxCell id="900" style="edgeStyle=orthogonalEdgeStyle;rounded=0;orthogonalLoop=1;jettySize=auto;html=1;exitX=0;exitY=0.5;exitDx=0;exitDy=0;entryX=1;entryY=0.5;entryDx=0;entryDy=0;" edge="1" parent="1" source="875" target="827"><mxGeometry relative="1" as="geometry"><Array as="points"><mxPoint x="-1040" y="755"/><mxPoint x="-1040" y="545"/></Array></mxGeometry></mxCell></root></mxGraphModel></diagram></mxfile>